# xmcd CD database file
# Copyright (C) 1993-1998 Ti Kan
#
# Track frame offsets:
#	183
#	12175
#	22610
#	36550
#	56698
#	69753
#	86878
#	100220
#	111093
#	129560
#
# Disc length: 1974 seconds
#
# Revision: 1
# Processed by: cddbd v1.4b41PL1 Copyright (c) Steve Scherf et al.
# Submitted via: xmcd 2.1 PL2
#
DISCID=7a07b40a
DTITLE=Guitar Johnny and The Rhythm Rockers
DYEAR=1900
DGENRE=
TTITLE0=Too Many Bad Habits
TTITLE1=Good Rocking Mama
TTITLE2=Nip Sip
TTITLE3=Teardrops On My Window Pane
TTITLE4=As Long As I'm Moving
TTITLE5=Lost Time
TTITLE6=Two Bones and A Pick
TTITLE7=I Wish Your Picture Was You
TTITLE8=Froggy Bottom
TTITLE9=Memory Pain
EXTD=
EXTT0=
EXTT1=
EXTT2=
EXTT3=
EXTT4=
EXTT5=
EXTT6=
EXTT7=
EXTT8=
EXTT9=
PLAYORDER=
